<svg class="card-img-top mt-3" width="128" height="128" version="1.1" id="Capa_1" xmlns="http://www.w3.org/2000/svg" xmlns:xlink="http://www.w3.org/1999/xlink" x="0px" y="0px" viewBox="0 0 512.001 512.001" style="enable-background:new 0 0 512.001 512.001;" xml:space="preserve">
    <path d="M204.873,65.852c-76.656,0-139.022,62.365-139.022,139.022s62.365,139.022,139.022,139.022s139.022-62.364,139.022-139.022S281.531,65.852,204.873,65.852z M160.867,127.669c-0.443,1.276-0.879,2.577-1.304,3.928c-5.131,16.304-8.492,36.868-9.595,58.08h-32.674C121.885,163.138,138.284,140.592,160.867,127.669z M117.295,220.071h32.674v-0.001c1.103,21.212,4.464,41.775,9.595,58.079c0.424,1.35,0.861,2.653,1.305,3.929C138.284,269.155,121.886,246.61,117.295,220.071z M204.878,293.757c-0.002,0-0.003,0-0.005,0s-0.003,0-0.005,0c-8.944-0.011-22.007-28.846-24.487-73.687h48.984C226.885,264.912,213.822,293.747,204.878,293.757z M180.382,189.677c2.48-44.842,15.544-73.677,24.487-73.688c0.002,0,0.003,0,0.005,0s0.003,0,0.005,0c8.944,0.011,22.007,28.846,24.488,73.688H180.382z M292.452,189.677h-32.674c-1.103-21.212-4.464-41.776-9.595-58.079c-0.424-1.35-0.861-2.652-1.305-3.929C271.462,140.592,287.861,163.137,292.452,189.677z M248.879,282.077c0.443-1.276,0.879-2.578,1.305-3.929c5.131-16.303,8.492-36.867,9.595-58.079h32.674C287.861,246.609,271.462,269.155,248.879,282.077zM395.126,339.193l-17.221,17.221l-17.885-17.885c30.973-35.903,49.727-82.63,49.727-133.655C409.747,91.906,317.84,0,204.873,0C91.906,0,0,91.906,0,204.873C0,317.84,91.906,409.747,204.873,409.747c51.026,0,97.751-18.755,133.654-49.727l17.885,17.885l-17.221,17.221L456.068,512L512,456.068L395.126,339.193z M204.873,374.288c-93.415,0-169.415-75.999-169.415-169.415s76-169.415,169.415-169.415s169.415,76,169.415,169.415S298.289,374.288,204.873,374.288z" fill="#25c0db" /></svg>